<svg xmlns="http://www.w3.org/2000/svg" xmlns:xlink="http://www.w3.org/1999/xlink" width="310.247" height="90.56" viewBox="0 0 310.247 90.56">
  <defs>
    <clipPath id="clip-path">
      <rect id="長方形_26" data-name="長方形 26" width="310.247" height="90.56" transform="translate(0 0)" fill="#fff"/>
    </clipPath>
  </defs>
  <g id="マスクグループ_16" data-name="マスクグループ 16" clip-path="url(#clip-path)">
    <path id="パス_112" data-name="パス 112" d="M0,66.923c0-7.61,4.7-13.012,11.979-13.012a10.546,10.546,0,0,1,9.255,4.98l.141-3.994c0-.376.235-.516.564-.516h2.537a.47.47,0,0,1,.517.516V78.9c0,.377-.188.565-.517.565H21.938a.5.5,0,0,1-.564-.565l-.141-3.992a10.523,10.523,0,0,1-9.255,5.073C4.7,79.983,0,74.533,0,66.923m21.375,0c0-5.589-3.524-9.348-8.643-9.348s-8.644,3.759-8.644,9.348,3.523,9.349,8.644,9.349,8.643-3.759,8.643-9.349" transform="translate(0 -5.913)" fill="#fff"/>
    <path id="パス_113" data-name="パス 113" d="M42.022,69.826V57H37.606a.483.483,0,0,1-.516-.47V53.947a.493.493,0,0,1,.516-.516h4.416v-7.7a.458.458,0,0,1,.517-.47h2.912a.5.5,0,0,1,.564.47v7.7h6.953a.458.458,0,0,1,.47.516v2.584a.444.444,0,0,1-.47.47H46.015V69.92c0,3.759,1.127,5.4,3.617,5.4a3.425,3.425,0,0,0,3.241-2.255c.142-.329.377-.423.658-.282l2.255.987c.282.141.376.422.188.8-1.6,3.194-4.04,4.463-6.717,4.463-4.509,0-7.235-2.866-7.235-9.208" transform="translate(-4.068 -4.964)" fill="#fff"/>
    <path id="パス_114" data-name="パス 114" d="M65.37,66.922c0-7.563,4.792-13.012,12.262-13.012,7.423,0,11.509,5.589,11.415,13.717a.518.518,0,0,1-.563.564H69.5c.517,5.028,3.524,8.128,8.128,8.128,3.664,0,5.919-1.457,7.328-4.181.141-.329.376-.376.705-.282l2.442.892a.452.452,0,0,1,.329.659,11.292,11.292,0,0,1-10.8,6.576c-7.517,0-12.262-5.543-12.262-13.06m4.181-1.879H84.819c-.376-4.557-3.007-7.563-7.188-7.563-4.275,0-7.423,2.866-8.081,7.563" transform="translate(-7.17 -5.913)" fill="#fff"/>
    <path id="パス_115" data-name="パス 115" d="M102.919,78.025a.518.518,0,0,1-.564-.564V41.287a.506.506,0,0,1,.564-.516h2.912a.47.47,0,0,1,.517.516V77.46c0,.377-.188.564-.517.564Z" transform="translate(-11.226 -4.472)" fill="#fff"/>
    <path id="パス_116" data-name="パス 116" d="M119.026,44.944a2.493,2.493,0,0,1,2.631-2.537,2.538,2.538,0,1,1,0,5.073,2.492,2.492,0,0,1-2.631-2.536M120.2,78.2a.518.518,0,0,1-.564-.564V53.634a.506.506,0,0,1,.564-.516h2.912a.47.47,0,0,1,.517.516V77.64c0,.377-.188.564-.517.564Z" transform="translate(-13.054 -4.651)" fill="#fff"/>
    <path id="パス_117" data-name="パス 117" d="M135.064,66.922c0-7.563,4.792-13.012,12.262-13.012,7.423,0,11.509,5.589,11.415,13.717a.518.518,0,0,1-.563.564H139.2c.517,5.028,3.524,8.128,8.128,8.128,3.664,0,5.919-1.457,7.328-4.181.141-.329.376-.376.705-.282l2.442.892a.452.452,0,0,1,.329.659,11.292,11.292,0,0,1-10.8,6.576c-7.517,0-12.262-5.543-12.262-13.06m4.181-1.879h15.268c-.376-4.557-3.007-7.563-7.187-7.563-4.275,0-7.423,2.866-8.081,7.563" transform="translate(-14.813 -5.913)" fill="#fff"/>
    <path id="パス_118" data-name="パス 118" d="M172.614,79.483a.518.518,0,0,1-.564-.564V54.913a.506.506,0,0,1,.564-.516h2.537c.329,0,.564.141.564.516l.188,4.323a9.707,9.707,0,0,1,8.551-5.167,5.155,5.155,0,0,1,1.315.094c.376.046.47.234.47.563v2.866c0,.376-.235.517-.565.47a12.779,12.779,0,0,0-1.691-.142,8.02,8.02,0,0,0-7.939,7.94V78.919c0,.377-.188.564-.517.564Z" transform="translate(-18.87 -5.93)" fill="#fff"/>
    <path id="パス_119" data-name="パス 119" d="M196.53,79.629a2.889,2.889,0,1,1,2.912,2.866,2.83,2.83,0,0,1-2.912-2.866" transform="translate(-21.555 -8.424)" fill="#fff"/>
    <path id="パス_120" data-name="パス 120" d="M325.264,57.849a1.331,1.331,0,0,1,.889.318,2.123,2.123,0,0,1,.668,1.208,1.545,1.545,0,0,1-.1.826c-.223.668-1.081,1.208-2.607,1.621s-6.9.827-16.085,1.24a97.031,97.031,0,0,1-11.317,14.114c-2.7,2.638-4.991,3.433-6.866,2.448a3.543,3.543,0,0,1-1.4-1.589,8.445,8.445,0,0,1-.54-2,47.224,47.224,0,0,1-.445-6.421c0-2.161.063-4.323.19-6.453h-1.208c-5.372,0-10.173.031-14.337.064a.9.9,0,0,0-.286.031c-4.706.063-9.41.127-14.178.158q-5.962,6.533-11.349,12.907c-3.338,3.941-6.04,6.962-8.106,9.028a31.564,31.564,0,0,1-4.8,4.133,5.831,5.831,0,0,1-2.639,1.081,2.082,2.082,0,0,1-.922-.222,2.452,2.452,0,0,1-1.4-1.368,4.185,4.185,0,0,1,.318-3.115,1.158,1.158,0,0,1,.668-.668,1.537,1.537,0,0,1,.922,0,1.361,1.361,0,0,1,.667.668,1.233,1.233,0,0,1,0,.954c-.094.223-.159.445-.223.6a2.439,2.439,0,0,0-.063.382.274.274,0,0,0,0,.223v.063a1.864,1.864,0,0,0,.573-.191,9.981,9.981,0,0,0,1.367-.858,30.451,30.451,0,0,0,2.447-2.131q1.526-1.429,3.815-3.909c1.526-1.653,3.37-3.72,5.5-6.231q4.626-5.53,9.918-11.349-12.159,0-24.1-1.207a21.035,21.035,0,0,1-4.323-.986,8.675,8.675,0,0,1-4.1-2.734,5.15,5.15,0,0,1-1.018-4.132,7.873,7.873,0,0,1,2.162-4.039,19.563,19.563,0,0,1,3.56-2.987,84.153,84.153,0,0,1,39.928-14.656,41.753,41.753,0,0,1,7.471,0,18.571,18.571,0,0,1,7.821,2.416c.031,0,.063.032.1.063q10.919-10.442,20.885-18.692A141.216,141.216,0,0,1,320.4,3.743c5.118-2.989,8.965-4.2,11.539-3.592a2.624,2.624,0,0,1,1.271.731,3.762,3.762,0,0,1,1.049,1.843c.6,2.925-.191,7.6-2.384,14.052a173.119,173.119,0,0,1-9.283,21.458,232.079,232.079,0,0,1-12.906,22.38c8.36-.414,13.161-.827,14.432-1.272a1.241,1.241,0,0,1,1.145-1.494M280,36.9c-2.321-1.3-5.468-1.939-9.473-1.939-1.208,0-2.48.032-3.847.159a81.664,81.664,0,0,0-38.783,14.242A20.91,20.91,0,0,0,225,51.713a6.066,6.066,0,0,0-1.78,3.052,2.732,2.732,0,0,0,.54,2.225c1.176,1.431,3.433,2.352,6.739,2.765,4.26.477,8.584.763,12.97.954,4.355.159,8.742.255,13.13.255Q267.8,48.71,280,36.9m7.852,17.389a31.472,31.472,0,0,0-1.271-8.519A15.541,15.541,0,0,0,282.03,38.3c-7.471,7.248-14.877,14.782-22.125,22.634,4.069-.031,8.138-.063,12.175-.158,4.259-.064,9.155-.064,14.719-.064h.954c.127-2.161.159-4.291.1-6.421m31.885-16.053a183.836,183.836,0,0,0,9.473-21.491c2.289-6.389,3.179-10.872,2.67-13.414a1.27,1.27,0,0,0-.223-.508.851.851,0,0,0-.191-.254c-.063-.033-.127-.033-.159-.065-2.13-.476-5.595.7-10.3,3.56A145.7,145.7,0,0,0,304.25,18.334q-9.631,7.962-20.44,18.279a17.938,17.938,0,0,1,5.086,8.3,35.315,35.315,0,0,1,1.431,9.315c.032,2.162,0,4.323-.127,6.484h.509c5.086,0,10.394,0,15.99-.063a226.048,226.048,0,0,0,13.034-22.411M305.013,63.094c-4.291.064-9.25.064-14.909.064-.127,2.1-.158,4.227-.19,6.327a44.04,44.04,0,0,0,.445,6.2,6.575,6.575,0,0,0,.223,1.081,1.2,1.2,0,0,0,.476.7c.859.349,2.162-.35,3.942-2.035a88.743,88.743,0,0,0,10.013-12.335" transform="translate(-24.208 0)" fill="#fff"/>
  </g>
</svg>
