<svg xmlns="http://www.w3.org/2000/svg" xmlns:xlink="http://www.w3.org/1999/xlink" width="1003.716" height="292.981" viewBox="0 0 1003.716 292.981">
  <defs>
    <clipPath id="clip-path">
      <rect id="長方形_24" data-name="長方形 24" width="1003.716" height="292.981" transform="translate(-9 -106)"/>
    </clipPath>
  </defs>
  <g id="マスクグループ_12" data-name="マスクグループ 12" transform="translate(9 106)" clip-path="url(#clip-path)">
    <path id="パス_94" data-name="パス 94" d="M0,96.008c0-24.622,15.2-42.1,38.756-42.1,12.919,0,24.166,6.23,29.942,16.11L69.152,57.1c0-1.215.76-1.671,1.823-1.671h8.206A1.521,1.521,0,0,1,80.855,57.1v77.664c0,1.219-.608,1.826-1.674,1.826H70.976a1.609,1.609,0,0,1-1.823-1.826L68.7,121.848c-5.775,10.029-17.023,16.412-29.942,16.412C15.2,138.26,0,120.629,0,96.008m69.152,0c0-18.083-11.4-30.244-27.963-30.244S13.224,77.925,13.224,96.008s11.4,30.247,27.966,30.247,27.963-12.161,27.963-30.247" transform="translate(-9 -4.627)"/>
    <path id="パス_95" data-name="パス 95" d="M53.047,124.744V83.252H38.761a1.562,1.562,0,0,1-1.671-1.521V73.372A1.594,1.594,0,0,1,38.761,71.7H53.047V46.778a1.482,1.482,0,0,1,1.673-1.521h9.422a1.614,1.614,0,0,1,1.823,1.521V71.7H88.459a1.482,1.482,0,0,1,1.521,1.671v8.359a1.436,1.436,0,0,1-1.521,1.521H65.966v41.794c0,12.161,3.647,17.481,11.7,17.481,4.407,0,8.057-2.129,10.485-7.3.458-1.066,1.218-1.368,2.129-.913l7.3,3.194c.913.455,1.215,1.365.608,2.581-5.167,10.335-13.071,14.439-21.732,14.439-14.589,0-23.406-9.272-23.406-29.789" transform="translate(60.743 -20.899)"/>
    <path id="パス_96" data-name="パス 96" d="M65.37,96.007c0-24.469,15.5-42.1,39.669-42.1,24.014,0,37.235,18.083,36.929,44.378a1.675,1.675,0,0,1-1.82,1.823h-61.4c1.674,16.266,11.4,26.3,26.3,26.3,11.853,0,19.149-4.712,23.709-13.526.455-1.063,1.215-1.215,2.281-.913l7.9,2.886a1.463,1.463,0,0,1,1.063,2.131c-6.988,14.287-19.3,21.275-34.953,21.275-24.319,0-39.669-17.933-39.669-42.252M78.9,89.929h49.4c-1.216-14.742-9.727-24.469-23.253-24.469-13.832,0-24.014,9.272-26.142,24.469" transform="translate(113.921 -4.629)"/>
    <path id="パス_97" data-name="パス 97" d="M104.178,161.295a1.676,1.676,0,0,1-1.823-1.826V42.442a1.637,1.637,0,0,1,1.823-1.671H113.6a1.521,1.521,0,0,1,1.674,1.671V159.469c0,1.219-.608,1.826-1.674,1.826Z" transform="translate(183.467 -29.335)"/>
    <path id="パス_98" data-name="パス 98" d="M119.026,50.616c0-4.865,3.647-8.209,8.512-8.209,4.709,0,8.509,3.344,8.509,8.209s-3.8,8.2-8.509,8.2c-4.865,0-8.512-3.341-8.512-8.2m3.8,107.6A1.676,1.676,0,0,1,121,156.392V78.729a1.637,1.637,0,0,1,1.823-1.671h9.422a1.52,1.52,0,0,1,1.673,1.671v77.664c0,1.218-.608,1.826-1.673,1.826Z" transform="translate(214.815 -26.259)"/>
    <path id="パス_99" data-name="パス 99" d="M135.064,96.007c0-24.469,15.5-42.1,39.668-42.1,24.014,0,37.235,18.083,36.929,44.378a1.675,1.675,0,0,1-1.82,1.823h-61.4c1.674,16.266,11.4,26.3,26.295,26.3,11.853,0,19.149-4.712,23.708-13.526.455-1.063,1.216-1.215,2.281-.913l7.9,2.886a1.463,1.463,0,0,1,1.063,2.131c-6.988,14.287-19.3,21.275-34.953,21.275-24.319,0-39.668-17.933-39.668-42.252m13.526-6.078h49.4c-1.216-14.742-9.727-24.469-23.253-24.469-13.832,0-24.014,9.272-26.142,24.469" transform="translate(244.972 -4.629)"/>
    <path id="パス_100" data-name="パス 100" d="M173.873,136.291a1.676,1.676,0,0,1-1.823-1.826V56.8a1.637,1.637,0,0,1,1.823-1.671h8.206c1.066,0,1.823.455,1.823,1.671l.608,13.984c5.927-10.64,16.263-16.718,27.663-16.718a16.679,16.679,0,0,1,4.254.305c1.216.15,1.521.758,1.521,1.82v9.272c0,1.216-.761,1.673-1.826,1.521a41.355,41.355,0,0,0-5.47-.458c-13.376,0-25.684,11.1-25.684,25.687v42.25c0,1.218-.608,1.826-1.674,1.826Z" transform="translate(314.52 -4.331)"/>
    <path id="パス_101" data-name="パス 101" d="M196.53,85.929c0-5.32,4.1-9.119,9.422-9.119a8.992,8.992,0,0,1,9.272,9.119,9.347,9.347,0,0,1-18.694,0" transform="translate(360.552 38.432)"/>
    <path id="パス_102" data-name="パス 102" d="M558.936,187.153a4.307,4.307,0,0,1,2.878,1.028,6.866,6.866,0,0,1,2.16,3.909,5,5,0,0,1-.308,2.673c-.72,2.16-3.5,3.909-8.434,5.245s-22.317,2.676-52.039,4.012q-19.128,28.231-36.613,45.663c-8.742,8.535-16.148,11.107-22.213,7.918a11.464,11.464,0,0,1-4.528-5.141,27.32,27.32,0,0,1-1.745-6.481,152.785,152.785,0,0,1-1.44-20.773c0-6.991.2-13.987.616-20.877H433.36c-17.38,0-32.911.1-46.383.207a2.9,2.9,0,0,0-.925.1c-15.223.2-30.443.412-45.87.513q-19.287,21.136-36.716,41.757c-10.8,12.751-19.541,22.525-26.226,29.207-6.685,6.582-11.827,11.11-15.528,13.371s-6.481,3.5-8.537,3.5a6.735,6.735,0,0,1-2.982-.717,7.931,7.931,0,0,1-4.527-4.427c-1.029-2.261-.72-5.551,1.028-10.078a3.747,3.747,0,0,1,2.16-2.16,4.972,4.972,0,0,1,2.984,0,4.4,4.4,0,0,1,2.158,2.16,3.989,3.989,0,0,1,0,3.088c-.305.72-.513,1.44-.72,1.953a7.856,7.856,0,0,0-.2,1.236.886.886,0,0,0,0,.72v.2a6.029,6.029,0,0,0,1.852-.616,32.273,32.273,0,0,0,4.421-2.777,98.558,98.558,0,0,0,7.918-6.893q4.938-4.623,12.342-12.648c4.937-5.349,10.9-12.034,17.792-20.16q14.966-17.892,32.087-36.716-39.339,0-77.955-3.906a68.055,68.055,0,0,1-13.987-3.189,28.067,28.067,0,0,1-13.267-8.846,16.664,16.664,0,0,1-3.292-13.368,25.472,25.472,0,0,1,6.994-13.065,63.284,63.284,0,0,1,11.518-9.664Q300.278,111.92,368.669,105.7a135.076,135.076,0,0,1,24.169,0,60.08,60.08,0,0,1,25.3,7.817c.1,0,.2.1.308.2q35.325-33.783,67.568-60.474c21.6-17.792,40.729-31.471,57.185-41.138C559.757,2.44,572.2-1.466,580.534.49a8.486,8.486,0,0,1,4.113,2.365,12.169,12.169,0,0,1,3.393,5.962c1.956,9.462-.616,24.581-7.714,45.461q-10.8,31.316-30.031,69.42a750.839,750.839,0,0,1-41.754,72.4c27.047-1.339,42.578-2.676,46.691-4.116a4.015,4.015,0,0,1,3.7-4.833M412.483,119.378c-7.509-4.217-17.691-6.273-30.647-6.273-3.909,0-8.022.1-12.447.516q-66.333,6.014-125.472,46.075a67.655,67.655,0,0,0-9.359,7.61,19.624,19.624,0,0,0-5.758,9.874,8.84,8.84,0,0,0,1.748,7.2c3.8,4.629,11.107,7.61,21.8,8.946,13.783,1.544,27.77,2.468,41.961,3.085,14.091.516,28.283.824,42.477.824q36.249-39.646,75.693-77.854m25.4,56.257a101.818,101.818,0,0,0-4.113-27.562A50.276,50.276,0,0,0,419.064,123.9c-24.169,23.449-48.131,47.823-71.58,73.225,13.163-.1,26.329-.2,39.389-.513,13.779-.207,29.619-.207,47.618-.207h3.085c.411-6.991.516-13.883.308-20.773M541.04,123.7q19.59-38.414,30.647-69.527c7.406-20.67,10.286-35.172,8.639-43.4a4.105,4.105,0,0,0-.72-1.645,2.752,2.752,0,0,0-.617-.821c-.2-.107-.411-.107-.513-.21-6.892-1.541-18.1,2.264-33.323,11.519q-22.985,13.886-54.2,39.7-31.16,25.759-66.128,59.137A58.031,58.031,0,0,1,441.278,145.3a114.239,114.239,0,0,1,4.629,30.135c.1,6.994,0,13.987-.412,20.978h1.648c16.456,0,33.628,0,51.732-.2A731.4,731.4,0,0,0,541.04,123.7m-47.619,80.423c-13.884.207-29.927.207-48.235.207-.412,6.789-.513,13.676-.616,20.468a142.5,142.5,0,0,0,1.44,20.053,21.312,21.312,0,0,0,.72,3.5,3.872,3.872,0,0,0,1.542,2.264c2.779,1.129,6.993-1.132,12.754-6.585q15.58-15.58,32.4-39.9" transform="translate(406.043 -106)"/>
  </g>
</svg>
